<svg width="20" height="20" viewBox="0 0 20 20" fill="none" xmlns="http://www.w3.org/2000/svg">
<mask id="mask0_22546_1225" style="mask-type:alpha" maskUnits="userSpaceOnUse" x="0" y="0" width="20" height="20">
<rect width="20" height="20" fill="#D9D9D9"/>
</mask>
<g mask="url(#mask0_22546_1225)">
<path d="M7.73361 13.6587C6.30677 13.5369 5.10744 12.9555 4.13561 11.9145C3.16377 10.8735 2.67786 9.62798 2.67786 8.17798C2.67786 6.65231 3.21311 5.35423 4.28361 4.28373C5.35411 3.21323 6.65219 2.67798 8.17786 2.67798C9.62786 2.67798 10.8734 3.16231 11.9144 4.13098C12.9554 5.09948 13.5368 6.29723 13.6586 7.72423L12.0684 7.25298C11.8517 6.35298 11.3866 5.61548 10.6731 5.04048C9.95961 4.46548 9.12786 4.17798 8.17786 4.17798C7.07786 4.17798 6.13619 4.56965 5.35286 5.35298C4.56952 6.13631 4.17786 7.07798 4.17786 8.17798C4.17786 9.12798 4.46694 9.96131 5.04511 10.678C5.62327 11.3946 6.35919 11.8613 7.25286 12.078L7.73361 13.6587ZM16.3181 17.8222L11.7836 13.278L10.6971 16.5625L8.17786 8.17798L16.5624 10.6972L13.2779 11.7837L17.8221 16.3182L16.3181 17.8222Z" fill="#44546F"/>
</g>
</svg>
