<svg width="20" height="20" viewBox="0 0 20 20" fill="none" xmlns="http://www.w3.org/2000/svg">
<g clip-path="url(#clip0_22879_8964)">
<mask id="mask0_22879_8964" style="mask-type:alpha" maskUnits="userSpaceOnUse" x="0" y="0" width="20" height="20">
<rect width="20" height="20" fill="#D9D9D9"/>
</mask>
<g mask="url(#mask0_22879_8964)">
<path d="M6.14567 14.1026C5.6147 14.5459 5.06157 14.7467 4.48629 14.7051C3.91088 14.6634 3.41115 14.4669 2.98713 14.1155C2.56296 13.764 2.27477 13.3029 2.12254 12.7324C1.97032 12.162 2.07421 11.5781 2.43421 10.9809L4.02879 8.34133C3.68685 8.06258 3.41518 7.71807 3.21379 7.30779C3.0124 6.89751 2.91171 6.45411 2.91171 5.97758C2.91171 5.13036 3.21004 4.40842 3.80671 3.81175C4.40338 3.21508 5.12532 2.91675 5.97254 2.91675C6.81977 2.91675 7.54171 3.21508 8.13838 3.81175C8.73518 4.40842 9.03359 5.13036 9.03359 5.97758C9.03359 6.8248 8.73518 7.54675 8.13838 8.14342C7.54171 8.74022 6.81977 9.03862 5.97254 9.03862C5.82629 9.03862 5.68261 9.02897 5.5415 9.00967C5.40053 8.9905 5.26643 8.95897 5.13921 8.91508L3.51109 11.6395C3.33692 11.9268 3.28296 12.2094 3.34921 12.4872C3.41546 12.7649 3.55227 12.9908 3.75963 13.1649C3.96713 13.3388 4.21449 13.4376 4.50171 13.4613C4.78893 13.4851 5.06664 13.3863 5.33484 13.1651L13.8523 5.88467C14.3769 5.44133 14.9266 5.24133 15.5015 5.28466C16.0762 5.32786 16.579 5.52508 17.0098 5.87633C17.4405 6.22758 17.7319 6.68855 17.884 7.25925C18.0359 7.83008 17.9293 8.41675 17.564 9.01925L15.9613 11.6667C16.3032 11.9456 16.5749 12.2883 16.7763 12.6949C16.9777 13.1013 17.0784 13.5438 17.0784 14.0226C17.0784 14.8698 16.7781 15.5917 16.1775 16.1884C15.577 16.7851 14.855 17.0834 14.0117 17.0834C13.1684 17.0834 12.4484 16.7837 11.8517 16.1842C11.2549 15.5848 10.9565 14.8642 10.9565 14.0224C10.9565 13.1806 11.2555 12.46 11.8534 11.8607C12.4513 11.2613 13.17 10.9615 14.0094 10.9615C14.1566 10.9615 14.2998 10.9725 14.4388 10.9945C14.5778 11.0164 14.7109 11.0492 14.838 11.093L16.479 8.36071C16.6532 8.07335 16.7084 7.79092 16.6446 7.51342C16.5809 7.23592 16.4455 7.00994 16.2384 6.8355C16.0313 6.66105 15.7841 6.56071 15.4967 6.53446C15.2092 6.50835 14.9314 6.60855 14.6634 6.83508L6.14567 14.1026ZM5.97254 7.78862C6.47366 7.78862 6.90074 7.61203 7.25379 7.25883C7.60699 6.90578 7.78359 6.47869 7.78359 5.97758C7.78359 5.47661 7.60699 5.04953 7.25379 4.69633C6.90074 4.34328 6.47366 4.16675 5.97254 4.16675C5.47157 4.16675 5.04449 4.34328 4.69129 4.69633C4.33824 5.04953 4.16171 5.47661 4.16171 5.97758C4.16171 6.47869 4.33824 6.90578 4.69129 7.25883C5.04449 7.61203 5.47157 7.78862 5.97254 7.78862ZM14.0086 15.8334C14.509 15.8334 14.9374 15.6569 15.2938 15.3038C15.6502 14.9506 15.8284 14.5236 15.8284 14.0226C15.8284 13.5215 15.6502 13.0944 15.2938 12.7413C14.9374 12.3881 14.509 12.2115 14.0086 12.2115C13.508 12.2115 13.0825 12.3881 12.7321 12.7413C12.3817 13.0944 12.2065 13.5215 12.2065 14.0226C12.2065 14.5236 12.3817 14.9506 12.7321 15.3038C13.0825 15.6569 13.508 15.8334 14.0086 15.8334Z" fill="#44546F"/>
</g>
</g>
<defs>
<clipPath id="clip0_22879_8964">
<rect width="20" height="20" fill="white"/>
</clipPath>
</defs>
</svg>
